name C:\Users\u0150099\Documents\master_thesis\3dpredictsim\Results\debug\Fal_s1_mtjc2_sc_cspx10_oy2_ATx70_MTc2_MTPm_k1_d01_MTJm_nl_MG_exp5_table_d01_PF_Gefen2002_xv1_ls146_ig21_wAk5e+04_wa2e+03_wpM1e+03.mot
datacolumns 128
datarows 4
range 0.00000000 0.03500958
endheader
time	pelvis_tilt	pelvis_list	pelvis_rotation	pelvis_tx	pelvis_ty	pelvis_tz	hip_flexion_l	hip_adduction_l	hip_rotation_l	hip_flexion_r	hip_adduction_r	hip_rotation_r	knee_angle_l	knee_angle_r	ankle_angle_l	ankle_angle_r	subtalar_angle_l	subtalar_angle_r	mtj_angle_l	mtj_angle_r	mtp_angle_l	mtp_angle_r	lumbar_extension	lumbar_bending	lumbar_rotation	arm_flex_l	arm_add_l	arm_rot_l	arm_flex_r	arm_add_r	arm_rot_r	elbow_flex_l	elbow_flex_r	pro_sup_l	pro_sup_r	glut_med1_l/activation	glut_med2_l/activation	glut_med3_l/activation	glut_min1_l/activation	glut_min2_l/activation	glut_min3_l/activation	semimem_l/activation	semiten_l/activation	bifemlh_l/activation	bifemsh_l/activation	sar_l/activation	add_long_l/activation	add_brev_l/activation	add_mag1_l/activation	add_mag2_l/activation	add_mag3_l/activation	tfl_l/activation	pect_l/activation	grac_l/activation	glut_max1_l/activation	glut_max2_l/activation	glut_max3_l/activation	iliacus_l/activation	psoas_l/activation	quad_fem_l/activation	gem_l/activation	peri_l/activation	rect_fem_l/activation	vas_med_l/activation	vas_int_l/activation	vas_lat_l/activation	med_gas_l/activation	lat_gas_l/activation	soleus_l/activation	tib_post_l/activation	flex_dig_l/activation	flex_hal_l/activation	tib_ant_l/activation	per_brev_l/activation	per_long_l/activation	per_tert_l/activation	ext_dig_l/activation	ext_hal_l/activation	ercspn_l/activation	intobl_l/activation	extobl_l/activation	glut_med1_r/activation	glut_med2_r/activation	glut_med3_r/activation	glut_min1_r/activation	glut_min2_r/activation	glut_min3_r/activation	semimem_r/activation	semiten_r/activation	bifemlh_r/activation	bifemsh_r/activation	sar_r/activation	add_long_r/activation	add_brev_r/activation	add_mag1_r/activation	add_mag2_r/activation	add_mag3_r/activation	tfl_r/activation	pect_r/activation	grac_r/activation	glut_max1_r/activation	glut_max2_r/activation	glut_max3_r/activation	iliacus_r/activation	psoas_r/activation	quad_fem_r/activation	gem_r/activation	peri_r/activation	rect_fem_r/activation	vas_med_r/activation	vas_int_r/activation	vas_lat_r/activation	med_gas_r/activation	lat_gas_r/activation	soleus_r/activation	tib_post_r/activation	flex_dig_r/activation	flex_hal_r/activation	tib_ant_r/activation	per_brev_r/activation	per_long_r/activation	per_tert_r/activation	ext_dig_r/activation	ext_hal_r/activation	ercspn_r/activation	intobl_r/activation	extobl_r/activation	
          0.00000000	         -2.64856472	         -0.55119220	          5.21653193	          0.00000000	          0.90542210	         -0.00844384	        -13.34276890	          3.13214699	         18.05532284	         31.59114319	          1.84794161	         -2.25546860	        -21.58413865	        -15.36727288	          2.59985694	         17.49127680	         22.10350116	         12.60354582	         -4.97036305	          2.10691876	         20.47718208	         -2.34248856	         -0.93388432	          1.96532468	         -3.04393761	         22.42260741	        -13.48597232	         19.23057069	        -32.89923564	        -13.63968380	          6.01763521	         40.96506116	         26.05669852	         86.51662706	         86.51662706	          0.39962890	          0.07657955	          0.05000001	          0.60383010	          0.33494819	          0.11973452	          0.05000030	          0.05000001	          0.05000001	          0.05972484	          0.10181830	          0.05000001	          0.05000002	          0.05000002	          0.05000009	          0.05000003	          0.46109277	          0.05000052	          0.05000003	          0.05000006	          0.05000002	          0.05000002	          0.52533754	          0.61068637	          0.05000000	          0.05000006	          0.07134123	          0.48899058	          0.24660866	          0.26667380	          0.23463006	          0.10905328	          0.13934900	          0.12728312	          0.53153366	          0.96774794	          0.90772137	          0.05000000	          0.07856931	          0.52612138	          0.05000000	          0.05000000	          0.05000008	          0.05000000	          0.17622530	          0.13267819	          0.05972488	          0.05972488	          0.09693579	          0.05972489	          0.05972488	          0.05972486	          0.44323808	          0.05972490	          0.08719899	          0.05972487	          0.05000029	          0.08521690	          0.05203101	          0.07011776	          0.13393674	          0.14914438	          0.05000004	          0.05000551	          0.05972525	          0.06871311	          0.16501950	          0.08210978	          0.07186853	          0.05951961	          0.49446371	          0.27375622	          0.26286851	          0.05291536	          0.05000004	          0.05000005	          0.05000004	          0.05000000	          0.05000000	          0.05000000	          0.13974649	          0.62792822	          0.51184937	          0.38525422	          0.07134125	          0.12506260	          0.65236460	          0.73247891	          0.42579146	          0.05000000	          0.10694319	          0.12716174	
          0.01166986	         -2.68353697	         -0.66819117	          5.26603440	          0.01910566	          0.90433047	         -0.00780396	        -14.10280910	          2.70466605	         17.89754561	         31.13550967	          2.31040126	         -2.35470634	        -21.44150117	        -16.17903749	          0.04286481	         16.57716389	         22.57407017	         12.94025137	         -5.97048024	          2.45140017	         23.72267103	         -2.15771416	         -0.80803092	          2.09182565	         -3.28990273	         22.17818474	        -13.47085635	         18.99595733	        -33.73474692	        -13.52017821	          5.88062391	         41.28533362	         25.79363327	         86.51662706	         86.51662706	          0.33455813	          0.06411027	          0.05972489	          0.50550966	          0.28040926	          0.10023840	          0.05000016	          0.05000002	          0.05000058	          0.05000000	          0.08523945	          0.18087499	          0.05000010	          0.05972496	          0.05972504	          0.05972519	          0.38601397	          0.05000007	          0.05972496	          0.05975331	          0.05972602	          0.05972506	          0.43979788	          0.51124954	          0.06255193	          0.05972542	          0.05972489	          0.40936922	          0.20645396	          0.22325188	          0.19642575	          0.09129635	          0.11665908	          0.10655787	          0.44498510	          0.91859386	          0.75991897	          0.09715547	          0.06577604	          0.50693597	          0.05000000	          0.05000000	          0.05000000	          0.07464545	          0.18250014	          0.11107446	          0.05000000	          0.05000000	          0.17553513	          0.05000001	          0.05000001	          0.05000001	          0.37555167	          0.05000001	          0.07300055	          0.05000000	          0.07134113	          0.07134130	          0.15736414	          0.21805389	          0.16825740	          0.19531199	          0.05972488	          0.07134130	          0.05000032	          0.05752471	          0.18550917	          0.15532671	          0.07134121	          0.07134120	          0.55057052	          0.22918106	          0.22006623	          0.06948414	          0.19147094	          0.18162559	          0.15734312	          0.05972488	          0.05972489	          0.05972488	          0.11699198	          0.52568395	          0.42850598	          0.50646998	          0.05972491	          0.10469891	          0.76189381	          0.78338916	          0.49227758	          0.05000000	          0.08952984	          0.10645624	
          0.02333972	         -2.71906235	         -0.85791077	          5.29458825	          0.03829467	          0.90309933	         -0.00719073	        -14.83246370	          2.26153145	         17.66716998	         30.59007577	          2.68738383	         -2.27712131	        -21.34788798	        -17.10701183	         -2.59665993	         15.45502948	         22.78934607	         13.36115183	         -6.86385612	          2.91907873	         26.68199791	         -1.74600808	         -0.68959930	          2.28804654	         -3.52508450	         21.83653750	        -13.45757379	         18.77129475	        -34.36084592	        -13.46236208	          6.11291519	         41.56499265	         25.21536331	         86.51662706	         86.51662706	          0.29934869	          0.05367133	          0.05000001	          0.54059729	          0.23475079	          0.08391679	          0.05929638	          0.07134103	          0.05000003	          0.07698644	          0.07136011	          0.15142350	          0.13313495	          0.05000010	          0.05000025	          0.05000032	          0.32316010	          0.14281745	          0.05000009	          0.05002381	          0.05000096	          0.05000016	          0.50476775	          0.63961223	          0.05236673	          0.05000046	          0.05000001	          0.34271245	          0.17283748	          0.18690023	          0.16444214	          0.07643075	          0.09766372	          0.08920726	          0.37252907	          0.76902109	          0.63618291	          0.37072476	          0.16352278	          0.46880493	          0.46568899	          0.05000000	          0.05000000	          0.12379832	          0.15278401	          0.09298843	          0.36597885	          0.46568898	          0.53629404	          0.38837322	          0.46568847	          0.46568865	          0.32480227	          0.24482259	          0.16330387	          0.17489083	          0.05972488	          0.05972494	          0.13174085	          0.18254863	          0.14086042	          0.25629787	          0.05000002	          0.05972498	          0.29984286	          0.42344175	          0.36499529	          0.29256089	          0.05972487	          0.05972486	          0.46295278	          0.19186408	          0.27739839	          0.05817018	          0.16029411	          0.15205186	          0.13172325	          0.05000000	          0.05000000	          0.05000000	          0.21734643	          0.73322917	          0.67857309	          0.65296125	          0.05000003	          0.15304815	          0.66056001	          0.87817099	          0.60540736	          0.05472778	          0.08521692	          0.08912219	
          0.03500958	         -2.75972051	         -1.07269306	          5.27202715	          0.05686057	          0.90210335	         -0.00647180	        -15.30657866	          1.90375051	         17.39375181	         30.26522871	          3.04233904	         -2.32833103	        -21.65531546	        -18.14697454	         -5.17333989	         13.28931237	         22.92045914	         13.73319513	         -7.40186777	          3.38841099	         28.53705692	         -1.19944416	         -0.64699569	          2.49161485	         -3.73806866	         21.50482538	        -13.45170644	         18.57990046	        -34.60428490	        -13.44970710	          6.74965144	         41.68294343	         24.24612943	         86.51662706	         86.51662706	          0.25060634	          0.05000006	          0.05339456	          0.45257292	          0.19652680	          0.07025284	          0.05972544	          0.05972497	          0.05972527	          0.06445090	          0.05974070	          0.30667379	          0.20465657	          0.31229316	          0.10112636	          0.12968181	          0.27054061	          0.11956280	          0.05000034	          0.08521426	          0.10179137	          0.12330755	          0.42257743	          0.68134987	          0.12158983	          0.08523494	          0.09181008	          0.31122531	          0.17348707	          0.17348724	          0.17348706	          0.06398568	          0.08176133	          0.07468182	          0.32837733	          0.64380293	          0.53259455	          0.44774893	          0.13689670	          0.42964832	          0.38986203	          0.09271509	          0.25298039	          0.15865209	          0.12906163	          0.07784731	          0.52659358	          0.60584334	          0.55989388	          0.32515350	          0.38986151	          0.38986159	          0.27191536	          0.20495862	          0.13671343	          0.14641371	          0.05000002	          0.05000007	          0.19144766	          0.41537007	          0.41111154	          0.31933045	          0.05000003	          0.05000022	          0.25102011	          0.48524453	          0.42297365	          0.37685748	          0.05000000	          0.05000000	          0.38757112	          0.16062325	          0.23223018	          0.05000000	          0.33839865	          0.32002989	          0.27438312	          0.05000000	          0.05000000	          0.05000000	          0.18195635	          0.61383899	          0.56808242	          0.77029015	          0.08521677	          0.12812764	          0.76124049	          0.93147939	          0.77806807	          0.12668778	          0.07134122	          0.07461060	
